<?xml version="1.0" encoding="UTF-8" standalone="no"?>
<!-- Created with Inkscape (http://www.inkscape.org/) -->

<svg
   width="1095.071mm"
   height="337.17746mm"
   viewBox="0 0 1095.071 337.17746"
   version="1.1"
   id="svg1"
   xml:space="preserve"
   inkscape:version="1.4.2 (ebf0e940d0, 2025-05-08)"
   sodipodi:docname="djinn.svg"
   xmlns:inkscape="http://www.inkscape.org/namespaces/inkscape"
   xmlns:sodipodi="http://sodipodi.sourceforge.net/DTD/sodipodi-0.dtd"
   xmlns:xlink="http://www.w3.org/1999/xlink"
   xmlns="http://www.w3.org/2000/svg"
   xmlns:svg="http://www.w3.org/2000/svg"><sodipodi:namedview
     id="namedview1"
     pagecolor="#ffffff"
     bordercolor="#000000"
     borderopacity="0.25"
     inkscape:showpageshadow="2"
     inkscape:pageopacity="0.0"
     inkscape:pagecheckerboard="0"
     inkscape:deskcolor="#d1d1d1"
     inkscape:document-units="mm"
     inkscape:zoom="0.16657499"
     inkscape:cx="1656.9114"
     inkscape:cy="1395.7677"
     inkscape:window-width="1600"
     inkscape:window-height="840"
     inkscape:window-x="0"
     inkscape:window-y="0"
     inkscape:window-maximized="1"
     inkscape:current-layer="layer1" /><defs
     id="defs1"><linearGradient
       id="linearGradient61"
       inkscape:collect="always"><stop
         style="stop-color:#64025e;stop-opacity:1;"
         offset="0"
         id="stop60" /><stop
         style="stop-color:#43515f;stop-opacity:1;"
         offset="1"
         id="stop61" /></linearGradient><linearGradient
       id="linearGradient58"
       inkscape:collect="always"><stop
         style="stop-color:#440240;stop-opacity:1;"
         offset="0"
         id="stop58" /><stop
         style="stop-color:#1c48d6;stop-opacity:1;"
         offset="1"
         id="stop59" /></linearGradient><rect
       x="261.76727"
       y="-520.45496"
       width="917.72528"
       height="360.31497"
       id="rect1" /><rect
       x="261.76727"
       y="-520.45496"
       width="917.72528"
       height="360.31497"
       id="rect2" /><rect
       x="261.76727"
       y="-520.45496"
       width="917.72528"
       height="360.31497"
       id="rect4" /><linearGradient
       inkscape:collect="always"
       xlink:href="#linearGradient58"
       id="linearGradient59"
       x1="-201.36206"
       y1="765.88501"
       x2="884.83282"
       y2="418.9964"
       gradientUnits="userSpaceOnUse" /><linearGradient
       inkscape:collect="always"
       xlink:href="#linearGradient61"
       id="linearGradient60"
       gradientUnits="userSpaceOnUse"
       x1="377.60712"
       y1="1027.9347"
       x2="377.60712"
       y2="442.52359" /></defs><g
     inkscape:label="Layer 1"
     inkscape:groupmode="layer"
     id="layer1"
     transform="translate(208.31568,-407.20477)"><g
       id="g54"
       transform="matrix(1.0360903,0,0,1.0360903,-9.7947388,-25.673928)"
       style="fill:url(#linearGradient59)"><g
         id="g43"
         transform="matrix(0.96413834,0,0,0.96413834,7.36805,-286.25856)"
         style="fill:url(#linearGradient59)" /><path
         id="path45"
         style="fill:url(#linearGradient60);stroke-width:0.470689"
         d="m 349.33892,427.50454 c 3.52464,-4.14843 8.82216,-6.85191 15.3051,-6.47122 0.46558,-0.20514 -5.77525,-3.15707 -8.86818,-2.866 -4.06856,0.38288 -6.83272,4.74143 -10.75739,5.88021 -6.5715,1.90678 -14.54434,1.65991 -20.48488,1.3244 10.03539,-0.8657 18.86093,-0.0651 26.84055,-7.2072 -13.38688,3.08161 -15.91974,-1.29785 -24.50595,-0.06 -14.93395,2.15299 -16.29807,11.25157 -13.23196,12.43307 9.42169,-3.04955 18.66712,2.174 28.71747,2.75262 8.4571,0.007 13.91092,-6.55757 20.38066,-7.07481 3.362,-0.26879 5.67191,2.26629 6.00504,2.45534 -0.26409,-5.88135 -13.99751,-7.62793 -19.40046,-1.16641 z m -36.83302,3.55076 h 2.78631 c 2.72404,0 4.91704,2.33919 4.91704,5.24481 0,2.90563 -2.193,5.24482 -4.91704,5.24482 h -2.78631 c -2.72404,0 -4.91703,-2.33919 -4.91703,-5.24482 0,-2.90562 2.19299,-5.24481 4.91703,-5.24481 z m -6.45539,280.29312 c 9.27753,-25.3891 -40.16041,-28.6966 -39.44297,-47.5174 0.71744,-18.8209 40.07814,-26.1885 40.07814,-36.1692 0,-9.9807 -27.58853,-22.1368 -38.54747,-34.4172 0.002,-0.6869 17.82793,-10.5142 41.14025,-25.6602 13.16505,6.9672 37.29505,14.8691 51.9659,27.3734 7.49782,6.3906 7.64423,19.3557 4.26185,28.2625 -13.26969,34.9424 -81.22039,27.1686 -67.52319,56.3288 4.07953,8.685 16.42123,7.3505 16.70415,19.5046 4.56718,-9.81 -0.47263,-16.3397 -9.62293,-21.2284 21.56499,-3.9194 23.28053,12.0368 19.51441,19.6161 -5.33274,10.7321 -18.69003,14.325 -18.52855,13.907 z m -63.48844,-152.1571 c -1.78684,-14.5903 -1.13147,-32.4221 9.08581,-43.1518 10.2173,-10.7298 23.03693,-13.1198 38.51851,-18.778 3.59507,8.8932 15.87112,10.1645 23.05265,19.665 6.74428,-9.7953 16.49419,-12.1321 22.35145,-19.665 14.15343,4.8277 25.69449,4.6908 40.56817,18.7563 14.87368,14.0655 11.12247,28.6443 9.3143,43.2949 -1.41032,11.4272 -8.63402,29.7291 -15.25727,30.9893 -6.62327,1.2602 -38.64142,-16.1569 -56.13404,-25.0783 l 21.13841,-13.9736 c 7.04959,-2.62059 14.09917,-0.26931 21.14876,0.4763 -6.96215,-4.2569 -10.88435,-6.76946 -19.37214,-5.9762 -8.48779,0.79326 -70.76074,49.3023 -79.3478,44.5331 -8.58705,-4.7693 -13.66685,-19.6606 -15.06681,-31.092 z m 68.7514,-6.08337 c -8.72535,-4.11151 -18.90605,-9.96579 -26.78097,-8.84541 -7.87492,1.12038 -12.45451,4.00838 -18.55237,6.66528 7.56762,-1.47915 15.19151,-3.46482 22.50991,-2.701 6.31919,2.4647 12.50194,5.2939 18.8659,7.644 z m -24.59775,-74.37027 c -3.93233,-25.33746 11.95048,-36.70118 27.11443,-36.53183 14.92036,0.16663 30.21722,11.94596 25.86946,36.53183 -4.50883,25.49675 -20.5169,21.54521 -26.48057,33.79034 -7.703,-12.1187 -22.34544,-6.99954 -26.50332,-33.79034 z m -23.48665,258.07867 c -2.38206,-1.12838 -4.48919,-2.79768 -7.17974,-3.16822 -6.85823,-2.00141 -13.56389,-6.9067 -15.12535,-14.23503 -0.66592,-2.35635 -1.43025,-7.56791 2.46368,-7.0265 4.08052,1.58185 7.8288,4.06981 12.153,5.00609 2.36208,-1.07695 4.6129,-2.79746 7.34401,-2.50127 4.87359,0.0694 9.77907,-0.26372 14.6321,0.19699 2.80283,1.18553 4.914,3.75394 7.94083,4.55945 7.38766,1.58185 11.01536,-0.14383 16.12119,-4.51593 0.46085,-0.33594 5.30168,-0.64028 5.07224,0.0802 -1.55343,4.87831 -10.84752,9.46596 -15.20935,11.19223 -3.18213,3.83051 -14.45159,9.07472 -16.70097,10.41198 2.64049,0.56986 5.87095,4.10968 4.81396,6.14208 l -21.25913,-0.10395 c -0.61925,-1.97453 2.58461,-4.68693 4.93353,-6.03813 z m -10.37414,-14.86884 c -2.25393,-0.65856 -4.39924,-1.76603 -6.59495,-2.4433 1.30088,3.62777 4.46145,6.52834 7.97585,7.9241 -0.87457,-1.71445 -0.41749,-3.80738 -1.3809,-5.4808 z m 9.57409,-8.73428 c -3.00946,0 1.76719,-7.48084 7.46213,-7.48084 5.69493,0 9.56966,7.48084 7.46212,7.48084 z M 202.79854,417.80022 h 19.91455 c -13.27637,6.47627 -19.91455,22.82883 -19.91455,49.0577 v 246.74583 c 0,10.36202 -2.26669,17.97163 -6.80006,22.82883 -4.53341,4.53338 -11.98112,6.80007 -22.34314,6.80007 H 89.625794 c -10.362053,0 -17.97168,-2.26669 -22.828881,-6.80007 -4.533375,-4.8572 -6.800063,-12.46681 -6.800063,-22.82883 V 664.546 c 0,-26.22887 -6.638181,-42.74336 -19.914543,-49.54345 H 59.99685 c 33.02896,0 49.54344,16.51448 49.54344,49.54345 v 29.62894 h 44.20055 V 605.28815 466.85792 c 0,-32.70513 16.35257,-49.0577 49.0577,-49.0577 z m 410.9191,0 h 19.9145 c -13.27633,6.80006 -19.9145,23.31454 -19.9145,49.54344 v 29.6289 108.31559 59.25785 29.62894 c 0,32.70514 -16.5145,49.05771 -49.54349,49.05771 h -19.4288 c 6.15247,-2.91431 10.68586,-7.6096 13.60017,-14.08587 2.91434,-6.80009 3.56198,-13.43827 1.94291,-19.91454 -8.41916,-33.02896 -19.75263,-63.79123 -34.00041,-92.28682 -14.24781,-28.49556 -31.08611,-56.50541 -50.51492,-84.02955 v 23.31458 49.0577 88.88679 c 0,32.70514 -16.51448,49.05771 -49.54344,49.05771 h -19.91454 c 13.27636,-6.47627 19.91454,-22.82884 19.91454,-49.05771 V 467.34366 c 0,-33.02896 16.51448,-49.54344 49.54344,-49.54344 h 19.42881 c -6.47627,3.88575 -11.17156,9.22866 -14.08587,16.02872 -2.59051,5.82865 -3.72386,11.17157 -3.40003,16.02878 0.64762,4.5334 3.23812,9.3906 7.77149,14.5716 15.21923,18.45736 29.30511,37.56235 42.25765,57.31498 12.95253,19.42881 25.09553,39.82904 36.429,61.20071 v -26.71456 -59.25789 -29.6289 c 0,-33.02896 16.5145,-49.54344 49.54349,-49.54344 z m 231.68812,0 h 19.91455 c -13.27637,6.80006 -19.91455,23.31454 -19.91455,49.54344 v 29.6289 108.31559 59.25785 29.62894 c 0,32.70514 -16.51448,49.05771 -49.54344,49.05771 h -19.4288 c 6.15247,-2.91431 10.68586,-7.6096 13.60017,-14.08587 2.91431,-6.80009 3.56193,-13.43827 1.94286,-19.91454 -8.41913,-33.02896 -19.7526,-63.79123 -34.00041,-92.28682 -14.24777,-28.49556 -31.08606,-56.50541 -50.51487,-84.02955 v 23.31458 49.0577 88.88679 c 0,32.70514 -16.51448,49.05771 -49.54344,49.05771 h -19.91454 c 13.27636,-6.47627 19.91454,-22.82884 19.91454,-49.05771 V 467.34366 c 0,-33.02896 16.51448,-49.54344 49.54344,-49.54344 h 19.4288 c -6.47627,3.88575 -11.17155,9.22866 -14.08586,16.02872 -2.59051,5.82865 -3.72387,11.17157 -3.40008,16.02878 0.64765,4.5334 3.23817,9.3906 7.77154,14.5716 15.21923,18.45736 29.30511,37.56235 42.25764,57.31498 12.95254,19.42881 25.09554,39.82904 36.42901,61.20071 v -26.71456 -59.25789 -29.6289 c 0,-33.02896 16.51448,-49.54344 49.54344,-49.54344 z m -1037.01158,-5e-5 c 13.27637,6.47625 19.91464,22.82902 19.91464,49.05789 v 88.88669 49.54322 88.8872 c 0,26.22887 -6.63827,42.58113 -19.91464,49.05739 h 19.91464 108.315546 c 11.00969,0 21.209558,-2.1048 30.60015,-6.31433 9.714403,-4.20958 18.133518,-9.87601 25.2573918,-16.99989 7.12387387,-7.12392 12.7907594,-15.38151 17.0003397,-24.7721 4.2095805,-9.71441 6.3143705,-19.91432 6.3143705,-30.60015 V 496.48664 c 0,-10.68583 -2.10479,-20.72378 -6.3143705,-30.11437 -4.2095803,-9.7144 -9.87646583,-18.13347 -17.0003397,-25.25739 -7.1238738,-7.12387 -15.5429888,-12.7908 -25.2573918,-17.00038 -9.390592,-4.20954 -19.59046,-6.31433 -30.60015,-6.31433 H -171.69118 Z m 68.97203,49.05789 h 59.258156 c 10.362023,0 17.809708,2.42823 22.343098,7.28544 4.857202,4.53343 7.285938,11.98112 7.285938,22.34314 v 168.05945 c 0,10.36202 -2.428736,17.97172 -7.285938,22.82892 -4.53339,4.53339 -11.981075,6.80016 -22.343098,6.80016 h -59.258156 v -88.8872 -49.54322 z"
         sodipodi:nodetypes="ccssccsccsccssssssscssccscsccsccsscccssscccssscsccccssscssccccccccsccccssccccssssscsscsscsscsscccssscscccsscccscccsscsssccccccccssscscccsscccscccsscsssccccccccsscsccsccscscsscscscccscsssscccc" /></g></g></svg>
