<?xml version="1.0" encoding="UTF-8" standalone="no"?>
<!-- Created with Inkscape (http://www.inkscape.org/) -->

<svg
   width="381.11795mm"
   height="381.11795mm"
   viewBox="0 0 381.11793 381.11795"
   version="1.1"
   id="svg1"
   xml:space="preserve"
   inkscape:version="1.4.2 (ebf0e940d0, 2025-05-08)"
   sodipodi:docname="favicon.svg"
   inkscape:export-filename="favicon.png"
   inkscape:export-xdpi="96"
   inkscape:export-ydpi="96"
   xmlns:inkscape="http://www.inkscape.org/namespaces/inkscape"
   xmlns:sodipodi="http://sodipodi.sourceforge.net/DTD/sodipodi-0.dtd"
   xmlns:xlink="http://www.w3.org/1999/xlink"
   xmlns="http://www.w3.org/2000/svg"
   xmlns:svg="http://www.w3.org/2000/svg"><sodipodi:namedview
     id="namedview1"
     pagecolor="#ffffff"
     bordercolor="#000000"
     borderopacity="0.25"
     inkscape:showpageshadow="2"
     inkscape:pageopacity="0.0"
     inkscape:pagecheckerboard="0"
     inkscape:deskcolor="#d1d1d1"
     inkscape:document-units="mm"
     inkscape:zoom="0.25900276"
     inkscape:cx="287.64172"
     inkscape:cy="870.64709"
     inkscape:window-width="1600"
     inkscape:window-height="840"
     inkscape:window-x="0"
     inkscape:window-y="0"
     inkscape:window-maximized="1"
     inkscape:current-layer="g54" /><defs
     id="defs1"><linearGradient
       id="linearGradient58"
       inkscape:collect="always"><stop
         style="stop-color:#440240;stop-opacity:1;"
         offset="0"
         id="stop58" /><stop
         style="stop-color:#1c48d6;stop-opacity:1;"
         offset="1"
         id="stop59" /></linearGradient><rect
       x="261.76727"
       y="-520.45496"
       width="917.72528"
       height="360.31497"
       id="rect1" /><rect
       x="261.76727"
       y="-520.45496"
       width="917.72528"
       height="360.31497"
       id="rect2" /><rect
       x="261.76727"
       y="-520.45496"
       width="917.72528"
       height="360.31497"
       id="rect4" /><linearGradient
       inkscape:collect="always"
       xlink:href="#linearGradient58"
       id="linearGradient59"
       x1="-201.36206"
       y1="765.88501"
       x2="884.83282"
       y2="418.9964"
       gradientUnits="userSpaceOnUse" /><linearGradient
       inkscape:collect="always"
       xlink:href="#linearGradient58"
       id="linearGradient4"
       gradientUnits="userSpaceOnUse"
       x1="-201.36206"
       y1="765.88501"
       x2="884.83282"
       y2="418.9964" /></defs><g
     inkscape:label="Layer 1"
     inkscape:groupmode="layer"
     id="layer1"
     transform="translate(700.23085,-305.52031)"><g
       id="g54"
       transform="matrix(1.0360903,0,0,1.0360903,-9.7947388,-25.673928)"
       style="fill:url(#linearGradient59)"><g
         id="g43"
         transform="matrix(0.96413834,0,0,0.96413834,7.36805,-286.25856)"
         style="fill:url(#linearGradient4)" /><path
         d="m -442.6265,332.11386 c 3.95225,-4.65172 9.89246,-7.68318 17.16191,-7.25631 0.52206,-0.23002 -6.4759,-3.54008 -9.94407,-3.2137 -4.56215,0.42933 -7.66166,5.31666 -12.06246,6.59359 -7.36875,2.13811 -16.30885,1.86129 -22.97009,1.48508 11.25287,-0.97073 21.14912,-0.073 30.09682,-8.08157 -15.01096,3.45547 -17.85111,-1.45531 -27.47899,-0.0673 -16.74573,2.41419 -18.27534,12.6166 -14.83725,13.94144 10.56472,-3.41952 20.9318,2.43775 32.20145,3.08657 9.48311,0.008 15.59858,-7.35313 22.85322,-7.93313 3.76988,-0.30139 6.36003,2.54124 6.73357,2.75322 -0.29613,-6.59487 -15.69568,-8.55334 -21.75411,-1.30791 z m -41.30157,3.98153 h 3.12434 c 3.05452,0 5.51357,2.62298 5.51357,5.88111 0,3.25814 -2.45905,5.88112 -5.51357,5.88112 h -3.12434 c -3.05452,0 -5.51356,-2.62298 -5.51356,-5.88112 0,-3.25813 2.45904,-5.88111 5.51356,-5.88111 z m -7.23855,314.29807 c 10.40307,-28.46928 -45.03265,-32.17805 -44.22817,-53.28217 0.80448,-21.10424 44.94039,-29.36567 44.94039,-40.55722 0,-11.19155 -30.93555,-24.82242 -43.22402,-38.59267 0.002,-0.77024 19.9908,-11.78978 46.13136,-28.77328 14.76222,7.81246 41.81965,16.67301 58.27036,30.69432 8.40745,7.16591 8.57162,21.70392 4.7789,31.69129 -14.87956,39.18158 -91.07399,30.46467 -75.71506,63.16257 4.57446,9.73865 18.41344,8.24225 18.73069,21.87088 5.12126,-11.00014 -0.52997,-18.32202 -10.79038,-23.80381 24.18124,-4.3949 26.10491,13.49709 21.88189,21.99591 -5.97971,12.03411 -20.9575,16.06289 -20.77642,15.59418 z m -71.19081,-170.61668 c -2.00362,-16.36039 -1.26874,-36.35553 10.18809,-48.38695 11.45685,-12.03153 25.83175,-14.71148 43.19155,-21.05613 4.03122,9.97212 17.79659,11.39765 25.84938,22.05074 7.56249,-10.98365 18.49525,-13.60395 25.06311,-22.05074 15.87051,5.41339 28.81172,5.25989 45.48987,21.0318 16.67814,15.77192 12.47184,32.11941 10.4443,48.54741 -1.58142,12.81354 -9.68149,33.33581 -17.10827,34.74889 -7.4268,1.41309 -43.32937,-18.11704 -62.94418,-28.12078 l 23.70291,-15.66886 c 7.90484,-2.93852 15.80967,-0.30199 23.71451,0.53408 -7.80679,-4.77334 -12.20483,-7.59072 -21.72236,-6.70123 -9.51752,0.8895 -79.34537,55.28362 -88.97421,49.93583 -9.62883,-5.34791 -15.3249,-22.04581 -16.8947,-34.86406 z m 77.09226,-6.8214 c -9.7839,-4.61032 -21.19971,-11.17483 -30.03001,-9.91853 -8.8303,1.2563 -13.96549,4.49467 -20.80313,7.47391 8.48571,-1.6586 17.03453,-3.88517 25.24079,-3.02869 7.08583,2.76372 14.01867,5.93615 21.1547,8.57137 z m -27.58193,-83.39282 c -4.40939,-28.41138 13.40031,-41.15374 30.40394,-40.96384 16.73048,0.18684 33.88315,13.39523 29.00792,40.96384 -5.05584,28.59 -23.006,24.15906 -29.69317,37.88976 -8.63753,-13.58893 -25.05638,-7.84872 -29.71869,-37.88976 z m -26.33603,289.38858 c -2.67105,-1.26527 -5.03381,-3.13709 -8.05078,-3.55258 -7.69027,-2.24422 -15.20945,-7.74462 -16.96035,-15.96202 -0.74671,-2.64222 -1.60376,-8.48604 2.76258,-7.87895 4.57556,1.77376 8.77858,4.56356 13.62739,5.61343 2.64864,-1.20761 5.17253,-3.13685 8.23498,-2.80472 5.46485,0.0778 10.96546,-0.29572 16.40725,0.22089 3.14287,1.32935 5.51017,4.20936 8.90421,5.11259 8.28392,1.77376 12.35173,-0.16128 18.077,-5.06379 0.51676,-0.3767 5.94488,-0.71796 5.6876,0.0899 -1.74189,5.47015 -12.16353,10.61437 -17.05454,12.55007 -3.56818,4.29522 -16.20484,10.17566 -18.72712,11.67515 2.96084,0.639 6.58321,4.60826 5.39799,6.88723 l -23.83827,-0.11656 c -0.69438,-2.21408 2.89817,-5.25554 5.53206,-6.77067 z m -11.63272,-16.67271 c -2.52738,-0.73846 -4.93296,-1.98029 -7.39505,-2.73972 1.4587,4.06789 5.00271,7.32035 8.94348,8.88544 -0.98068,-1.92244 -0.46814,-4.26929 -1.54843,-6.14572 z m 10.73561,-9.79392 c -3.37457,0 1.98158,-8.38841 8.36743,-8.38841 6.38583,0 10.73064,8.38841 8.36742,8.38841 z"
         style="fill:#b69724;stroke-width:0.527793;fill-opacity:1"
         id="path1" /></g></g></svg>
