<?xml version="1.0" encoding="UTF-8" standalone="no"?>
<!-- Created with Inkscape (http://www.inkscape.org/) -->

<svg
   width="381.11795mm"
   height="381.11795mm"
   viewBox="0 0 381.11793 381.11795"
   version="1.1"
   id="svg1"
   xml:space="preserve"
   inkscape:version="1.4.2 (ebf0e940d0, 2025-05-08)"
   sodipodi:docname="favicon.svg"
   inkscape:export-filename="favicon.png"
   inkscape:export-xdpi="96"
   inkscape:export-ydpi="96"
   xmlns:inkscape="http://www.inkscape.org/namespaces/inkscape"
   xmlns:sodipodi="http://sodipodi.sourceforge.net/DTD/sodipodi-0.dtd"
   xmlns:xlink="http://www.w3.org/1999/xlink"
   xmlns="http://www.w3.org/2000/svg"
   xmlns:svg="http://www.w3.org/2000/svg"><sodipodi:namedview
     id="namedview1"
     pagecolor="#ffffff"
     bordercolor="#000000"
     borderopacity="0.25"
     inkscape:showpageshadow="2"
     inkscape:pageopacity="0.0"
     inkscape:pagecheckerboard="0"
     inkscape:deskcolor="#d1d1d1"
     inkscape:document-units="mm"
     inkscape:zoom="0.36628522"
     inkscape:cx="505.07089"
     inkscape:cy="771.2569"
     inkscape:window-width="1600"
     inkscape:window-height="840"
     inkscape:window-x="0"
     inkscape:window-y="0"
     inkscape:window-maximized="1"
     inkscape:current-layer="g54" /><defs
     id="defs1"><linearGradient
       id="linearGradient58"
       inkscape:collect="always"><stop
         style="stop-color:#440240;stop-opacity:1;"
         offset="0"
         id="stop58" /><stop
         style="stop-color:#1c48d6;stop-opacity:1;"
         offset="1"
         id="stop59" /></linearGradient><rect
       x="261.76727"
       y="-520.45496"
       width="917.72528"
       height="360.31497"
       id="rect1" /><rect
       x="261.76727"
       y="-520.45496"
       width="917.72528"
       height="360.31497"
       id="rect2" /><rect
       x="261.76727"
       y="-520.45496"
       width="917.72528"
       height="360.31497"
       id="rect4" /><linearGradient
       inkscape:collect="always"
       xlink:href="#linearGradient58"
       id="linearGradient59"
       x1="-201.36206"
       y1="765.88501"
       x2="884.83282"
       y2="418.9964"
       gradientUnits="userSpaceOnUse" /><linearGradient
       inkscape:collect="always"
       xlink:href="#linearGradient58"
       id="linearGradient4"
       gradientUnits="userSpaceOnUse"
       x1="-201.36206"
       y1="765.88501"
       x2="884.83282"
       y2="418.9964" /></defs><g
     inkscape:label="Layer 1"
     inkscape:groupmode="layer"
     id="layer1"
     transform="translate(700.23085,-305.52031)"><g
       id="g54"
       transform="matrix(1.0360903,0,0,1.0360903,-9.7947388,-25.673928)"
       style="fill:url(#linearGradient59)"><g
         id="g43"
         transform="matrix(0.96413834,0,0,0.96413834,7.36805,-286.25856)"
         style="fill:url(#linearGradient4)" /><path
         d="m -438.49039,333.25719 c 4.37087,-5.14442 10.94026,-8.49697 18.97968,-8.02489 0.57736,-0.25438 -7.16182,-3.91504 -10.99733,-3.55409 -5.04537,0.4748 -8.47318,5.8798 -13.34011,7.29198 -8.14924,2.36457 -18.03626,2.05843 -25.40306,1.64237 12.44477,-1.07354 23.38922,-0.0807 33.28465,-8.93756 -16.60091,3.82147 -19.74188,-1.60945 -30.38954,-0.0744 -18.51942,2.6699 -20.21105,13.95294 -16.4088,15.41811 11.68373,-3.78171 23.14888,2.69595 35.6122,3.4135 10.48755,0.009 17.25077,-8.13197 25.27381,-8.7734 4.16919,-0.33332 7.03368,2.8104 7.44679,3.04483 -0.3275,-7.29339 -17.35816,-9.4593 -24.05829,-1.44644 z m -45.67619,4.40325 h 3.45526 c 3.37806,0 6.09757,2.90081 6.09757,6.50404 0,3.60323 -2.71951,6.50404 -6.09757,6.50404 h -3.45526 c -3.37806,0 -6.09755,-2.90081 -6.09755,-6.50404 0,-3.60323 2.71949,-6.50404 6.09755,-6.50404 z m -8.00525,347.58824 c 11.50495,-31.48472 -49.80247,-35.58632 -48.91278,-58.92577 0.88969,-23.33958 49.70043,-32.47606 49.70043,-44.85301 0,-12.37694 -34.21221,-27.45158 -47.80226,-42.68037 0.002,-0.85182 22.1082,-13.03854 51.01755,-31.82092 16.32582,8.63995 46.24915,18.439 64.4423,33.94544 9.29796,7.92492 9.47952,24.00278 5.28508,35.048 -16.45559,43.33166 -100.72047,33.69146 -83.73473,69.85269 5.05898,10.77016 20.36377,9.11526 20.71462,24.18743 5.6637,-12.16527 -0.5861,-20.26268 -11.93328,-26.32509 26.74249,-4.86041 28.86992,14.92669 24.1996,24.32569 -6.61308,13.30876 -23.1773,17.76426 -22.97704,17.24591 z m -78.73128,-188.68825 c -2.21584,-18.09326 -1.40312,-40.20627 11.2672,-53.51205 12.67035,-13.3059 28.56783,-16.2697 47.76636,-23.28637 4.45821,11.02835 19.68159,12.60488 28.58733,24.38633 8.3635,-12.14703 20.45425,-15.04487 27.71777,-24.38633 17.5515,5.98677 31.86343,5.81701 50.30811,23.25947 18.44468,17.44246 13.79285,35.52146 11.55055,53.6895 -1.74892,14.17074 -10.70694,36.86671 -18.92036,38.42946 -8.21344,1.56277 -47.91878,-20.03598 -69.61117,-31.0993 l 26.2135,-17.32849 c 8.74212,-3.24977 17.48422,-0.33398 26.22633,0.59064 -8.63368,-5.27892 -13.49755,-8.39472 -24.02317,-7.41101 -10.52561,0.98371 -87.74956,61.13921 -98.39828,55.22498 -10.6487,-5.91435 -16.9481,-24.38088 -18.68417,-38.55683 z m 85.2578,-7.54391 c -10.8202,-5.09864 -23.44516,-12.35846 -33.21076,-10.96909 -9.7656,1.38936 -15.4447,4.97074 -23.00658,8.26554 9.38451,-1.83428 18.83881,-4.29669 27.91427,-3.34949 7.83636,3.05645 15.50352,6.5649 23.39539,9.47924 z m -30.50338,-92.22571 c -4.87643,-31.42069 14.81966,-45.51271 33.6243,-45.3027 18.50255,0.20663 37.47202,14.81405 32.08041,45.3027 -5.59135,31.61822 -25.44277,26.71796 -32.83824,41.90301 -9.55241,-15.02826 -27.71033,-8.68005 -32.86647,-41.90301 z"
         style="fill:#b69724;fill-opacity:1;stroke-width:0.583696"
         id="path1"
         sodipodi:nodetypes="scssccsccscssssssssscssccscsccsccsccccssscccscscsccccssscs" /></g></g></svg>
