<?xml version="1.0" encoding="UTF-8" standalone="no"?>
<!-- Created with Inkscape (http://www.inkscape.org/) -->

<svg
   width="248.49434mm"
   height="248.49434mm"
   viewBox="0 0 248.49433 248.49434"
   version="1.1"
   id="svg1"
   xml:space="preserve"
   inkscape:version="1.4.2 (ebf0e940d0, 2025-05-08)"
   sodipodi:docname="favicon.svg"
   inkscape:export-filename="favicon.png"
   inkscape:export-xdpi="96"
   inkscape:export-ydpi="96"
   xmlns:inkscape="http://www.inkscape.org/namespaces/inkscape"
   xmlns:sodipodi="http://sodipodi.sourceforge.net/DTD/sodipodi-0.dtd"
   xmlns:xlink="http://www.w3.org/1999/xlink"
   xmlns="http://www.w3.org/2000/svg"
   xmlns:svg="http://www.w3.org/2000/svg"><sodipodi:namedview
     id="namedview1"
     pagecolor="#ffffff"
     bordercolor="#000000"
     borderopacity="0.25"
     inkscape:showpageshadow="2"
     inkscape:pageopacity="0.0"
     inkscape:pagecheckerboard="0"
     inkscape:deskcolor="#d1d1d1"
     inkscape:document-units="mm"
     inkscape:zoom="0.25900276"
     inkscape:cx="528.95189"
     inkscape:cy="268.33691"
     inkscape:window-width="1600"
     inkscape:window-height="840"
     inkscape:window-x="0"
     inkscape:window-y="0"
     inkscape:window-maximized="1"
     inkscape:current-layer="g54" /><defs
     id="defs1"><linearGradient
       id="linearGradient58"
       inkscape:collect="always"><stop
         style="stop-color:#440240;stop-opacity:1;"
         offset="0"
         id="stop58" /><stop
         style="stop-color:#1c48d6;stop-opacity:1;"
         offset="1"
         id="stop59" /></linearGradient><rect
       x="261.76727"
       y="-520.45496"
       width="917.72528"
       height="360.31497"
       id="rect1" /><rect
       x="261.76727"
       y="-520.45496"
       width="917.72528"
       height="360.31497"
       id="rect2" /><rect
       x="261.76727"
       y="-520.45496"
       width="917.72528"
       height="360.31497"
       id="rect4" /><linearGradient
       inkscape:collect="always"
       xlink:href="#linearGradient58"
       id="linearGradient59"
       x1="-201.36206"
       y1="765.88501"
       x2="884.83282"
       y2="418.9964"
       gradientUnits="userSpaceOnUse" /><linearGradient
       inkscape:collect="always"
       xlink:href="#linearGradient58"
       id="linearGradient4"
       gradientUnits="userSpaceOnUse"
       x1="-201.36206"
       y1="765.88501"
       x2="884.83282"
       y2="418.9964" /></defs><g
     inkscape:label="Layer 1"
     inkscape:groupmode="layer"
     id="layer1"
     transform="translate(633.91903,-301.18198)"><g
       id="g54"
       transform="matrix(1.0360903,0,0,1.0360903,-9.7947388,-25.673928)"
       style="fill:url(#linearGradient59)"><g
         id="g43"
         transform="matrix(1.0054649,0,0,1.0054649,28.330299,-317.18186)"
         style="fill:url(#linearGradient4)" /><path
         id="path6"
         style="fill:#673955;fill-opacity:1;stroke-width:0.608715"
         d="m -513.16371,419.10144 c -20.02145,7.31743 -36.60061,10.40818 -49.81406,24.28442 -13.21341,13.87612 -14.06084,36.93678 -11.75002,55.80558 1.81048,14.78358 8.37992,34.04177 19.48506,40.20963 11.10516,6.16774 91.63905,-56.56639 102.61583,-57.59227 10.97678,-1.02588 16.04943,2.2236 25.05318,7.7288 -9.11683,-0.96425 -18.23382,-4.00492 -27.35065,-0.61585 l -27.33714,18.07131 c 22.6222,11.53754 64.02976,34.06221 72.59526,32.43246 8.56548,-1.62974 17.90721,-25.29884 19.7311,-40.07699 2.33841,-18.94679 7.18982,-37.80065 -12.04546,-55.99076 -19.23529,-18.19011 -34.16089,-18.01295 -52.46471,-24.25633 -7.57487,9.74187 -20.1839,12.76364 -28.90589,25.43133 -9.28748,-12.28644 -25.1632,-13.93027 -29.8125,-25.43133 z m -5.34291,60.61482 c 9.87931,-0.34263 22.11223,6.62317 32.69097,11.60803 l -5.11768,3.57338 c -8.23015,-3.03926 -16.22607,-6.69838 -24.39833,-9.88584 -9.46447,-0.9878 -19.32407,1.58038 -29.11083,3.49328 7.88601,-3.43603 13.80843,-7.17089 23.99262,-8.6198 0.63651,-0.0905 1.28463,-0.14621 1.94325,-0.16905 z m 30.05957,30.32952 c -30.14851,19.58747 -53.20227,32.29677 -53.20435,33.18511 3.19311,3.57814 7.478,7.14807 12.20046,10.67956 h 114.15467 c -1.33142,-3.2739 -3.27899,-6.19088 -5.94627,-8.46428 -18.97297,-16.17111 -50.17891,-26.3901 -67.20451,-35.40039 z" /><path
         id="path5"
         style="fill:#673955;fill-opacity:1;stroke-width:0.608715"
         d="m -482.5606,347.90119 c -19.61067,-0.21901 -40.15139,14.47707 -35.06593,47.24456 5.37715,34.64702 24.31346,28.02632 34.27532,43.69875 7.71247,-15.83594 28.41518,-10.72525 34.24619,-43.69875 5.62272,-31.7955 -14.15994,-47.02907 -33.45558,-47.24456 z" /><path
         id="path4"
         style="fill:#673955;fill-opacity:1;stroke-width:0.608715"
         d="m -484.27343,333.48075 c -3.52285,0 -6.35874,3.02499 -6.35874,6.78266 0,3.75768 2.83589,6.78266 6.35874,6.78266 h 3.60356 c 3.52285,0 6.35873,-3.02498 6.35873,-6.78266 0,-3.75767 -2.83588,-6.78266 -6.35873,-6.78266 z" /><path
         id="path3"
         style="fill:#673955;fill-opacity:1;stroke-width:0.608715"
         d="m -461.85944,316.43933 c -1.18607,0.006 -2.45221,0.0927 -3.84021,0.29283 -19.31323,2.78435 -21.07688,14.55121 -17.11165,16.07918 12.18454,-3.94381 24.14064,2.81155 37.13818,3.55986 10.93708,0.009 17.99025,-8.48039 26.35719,-9.14932 4.3479,-0.34761 7.33543,2.93047 7.76625,3.17495 -0.32689,-7.27972 -16.60944,-9.65971 -24.13202,-2.52425 4.53692,-4.77131 11.00522,-7.81253 18.83541,-7.35273 0.60211,-0.26529 -7.46871,-4.08296 -11.46862,-3.70654 -5.26164,0.49515 -8.8362,6.13177 -13.91174,7.60448 -8.49855,2.46592 -18.80934,2.14672 -26.49191,1.71283 12.9782,-1.11956 24.39161,-0.084 34.71119,-9.32043 -15.14841,3.48711 -19.54955,-0.41372 -27.85207,-0.37086 z" /></g></g></svg>
